<svg id="Layer_1" enable-background="new 0 0 512 512" height="512" viewBox="0 0 512 512" width="512" xmlns="http://www.w3.org/2000/svg"><g><g clip-rule="evenodd" fill-rule="evenodd"><path d="m299.173 48.43h180.455c13.691 0 24.889 11.198 24.889 24.89v365.39c0 13.692-11.197 24.89-24.889 24.89h-251.89c-13.691 0-24.888-11.197-24.888-24.89v-293.956z" fill="#fff9df"/><path d="m450.487 48.43h29.141c13.691 0 24.889 11.198 24.889 24.89v365.39c0 13.692-11.197 24.89-24.889 24.89h-29.141c13.691 0 24.889-11.197 24.889-24.89v-365.391c0-13.691-11.197-24.889-24.889-24.889z" fill="#fff3bf"/><path d="m399.662 189.201 28.998-4.593 30.502 4.593v137.851l-27.214 3.032-32.286-3.032z" fill="#fc7070"/><path d="m435.492 374.505 23.67-47.453h-59.5l23.669 47.453c3.203 6.406 9.1 6.065 12.161 0z" fill="#ffe07d"/><path d="m435.492 374.505 23.67-47.453h-29.141l-15.194 30.444 8.504 17.009c3.203 6.406 9.1 6.065 12.161 0z" fill="#ffd064"/><path d="m459.162 189.201v-32.23c0-9.184-7.512-16.668-16.696-16.668h-26.136c-9.185 0-16.668 7.484-16.668 16.668v32.23z" fill="#90d8f9"/><path d="m459.162 189.201v-32.23c0-9.184-7.512-16.668-16.696-16.668h-26.136c-.511 0-.992 0-1.503.057 8.504.766 15.194 7.938 15.194 16.611v32.23z" fill="#6bbef6"/><path d="m274.283 144.754c13.692 0 24.89-11.198 24.89-24.89 0-23.811 0-47.622 0-71.435l-96.322 96.324c23.81.001 47.622.001 71.432.001z" fill="#ffe07d"/><path d="m347.844 189.201h-334.521c-3.203 0-5.811 2.636-5.811 5.839v217.137c0 3.203 2.607 5.84 5.811 5.84h334.521c3.203 0 5.839-2.637 5.839-5.84v-217.137c0-3.203-2.636-5.839-5.839-5.839z" fill="#d3effb"/><path d="m347.844 189.201h-29.112c3.203 0 5.812 2.636 5.812 5.839v217.137c0 3.203-2.608 5.84-5.812 5.84h29.112c3.203 0 5.839-2.637 5.839-5.84v-217.137c0-3.203-2.636-5.839-5.839-5.839z" fill="#b1e4f9"/><path d="m9.015 416.089c1.077 1.19 2.607 1.928 4.309 1.928h167.275l-82.036-103.919c-2.807-3.572-6.265-3.516-9.015 0z" fill="#95d6a4"/><path d="m151.457 418.017h29.141l-82.035-103.919c-2.807-3.572-6.265-3.516-9.015 0l-10.063 12.727z" fill="#78c2a4"/><path d="m94.055 418.017h253.789c1.701 0 3.26-.737 4.309-1.928l-123.79-156.814c-2.977-3.771-6.038-3.771-9.015 0z" fill="#b3e59f"/><path d="m324.543 418.017h23.301c1.701 0 3.26-.737 4.309-1.928l-123.79-156.814c-2.977-3.771-6.038-3.771-9.015 0l-10.063 12.728z" fill="#95d6a4"/><path d="m94.055 279.259c16.413 0 29.793-13.38 29.793-29.82 0-16.413-13.38-29.793-29.793-29.793-16.441 0-29.82 13.38-29.82 29.793-.001 16.44 13.378 29.82 29.82 29.82z" fill="#ffe07d"/><path d="m94.055 219.645c16.441 0 29.793 13.323 29.793 29.793 0 16.469-13.352 29.82-29.793 29.82-5.301 0-10.261-1.39-14.569-3.799 9.099-5.103 15.25-14.825 15.25-26.021 0-11.169-6.151-20.892-15.25-25.994 4.308-2.437 9.268-3.799 14.569-3.799z" fill="#ffd064"/></g><path d="m74.099 345.703c-2.579 3.26-7.257 3.799-10.488 1.248-3.26-2.552-3.799-7.257-1.247-10.488l25.824-32.712c3.033-3.855 8.872-3.742 11.82.113l37.305 47.282 30.303-38.382c2.551-3.231 7.229-3.77 10.488-1.219 3.232 2.552 3.77 7.257 1.219 10.488-23.273 29.48-46.574 58.99-69.847 88.471h228.759l-114.38-144.881-23.471 29.736c-2.579 3.231-7.257 3.798-10.488 1.247-3.26-2.581-3.799-7.258-1.247-10.489l29.339-37.19c3.062-3.855 8.9-3.741 11.82.113l116.363 147.403v-199.73c-110.382 0-220.765 0-331.175 0v199.731l26.306-33.308c2.579-3.26 7.257-3.799 10.488-1.248 3.26 2.552 3.798 7.258 1.247 10.488l-30.105 38.128h67.522l37.361-47.312-33.762-42.775zm19.956-133.57c10.29 0 19.616 4.167 26.363 10.942 6.774 6.747 10.941 16.073 10.941 26.363 0 10.317-4.167 19.643-10.941 26.39-6.747 6.747-16.073 10.914-26.363 10.914-10.317 0-19.645-4.167-26.391-10.914-6.746-6.746-10.941-16.072-10.941-26.39 0-10.29 4.195-19.616 10.941-26.363 6.746-6.775 16.073-10.942 26.391-10.942zm15.76 21.544c-4.025-4.053-9.609-6.548-15.761-6.548-6.18 0-11.735 2.495-15.789 6.548-4.025 4.025-6.52 9.609-6.52 15.762 0 6.179 2.494 11.734 6.52 15.788 4.054 4.025 9.609 6.521 15.789 6.521 6.151 0 11.735-2.495 15.761-6.521 4.054-4.054 6.548-9.609 6.548-15.788 0-6.153-2.494-11.737-6.548-15.762zm251.352 137.992h52.385l-20.467-40.989c-.623-1.134-.936-2.296-.936-3.628v-51.932c0-4.139 3.374-7.512 7.513-7.512s7.483 3.373 7.483 7.512v44.448h14.769v-122.855h-14.769v44.448c0 4.139-3.345 7.483-7.483 7.483s-7.513-3.345-7.513-7.483c0-28.064 0-56.128 0-84.19 0-6.661 2.722-12.699 7.087-17.093 4.564-4.536 10.659-7.088 17.094-7.088h26.136c6.661 0 12.699 2.722 17.093 7.088 4.365 4.394 7.087 10.432 7.087 17.093v170.081c0 1.332-.341 2.551-.935 3.628l-23.527 47.142c-2.608 5.215-7.116 8.872-13.097 8.872h-67.919v31.323c0 4.139-3.345 7.483-7.484 7.483h-143.35v13.209c0 4.763 1.955 9.128 5.13 12.274 3.146 3.147 7.484 5.103 12.274 5.103h251.89c4.763 0 9.1-1.955 12.274-5.103 3.147-3.146 5.103-7.512 5.103-12.274v-365.39c0-4.791-1.956-9.127-5.103-12.273-3.175-3.177-7.512-5.132-12.274-5.132h-172.972v63.95c0 8.9-3.629 17.008-9.496 22.877-5.868 5.867-13.976 9.495-22.877 9.495h-63.949v29.48h143.349c4.14 0 7.484 3.346 7.484 7.484zm75.743-174.956v122.855h14.74v-122.855zm-241.572-14.996v-36.963c0-2.098.851-3.997 2.239-5.357l96.295-96.268c1.445-1.474 3.373-2.211 5.301-2.211h180.455c8.901 0 17.008 3.657 22.876 9.525s9.496 13.948 9.496 22.876v365.39c0 8.901-3.628 17.009-9.496 22.877-5.868 5.867-13.975 9.496-22.876 9.496h-251.89c-8.929 0-17.036-3.629-22.904-9.496-5.867-5.868-9.496-13.975-9.496-22.877v-13.209h-187.825c-4.139 0-7.513-3.345-7.513-7.483v-228.816c0-4.139 3.374-7.484 7.513-7.484zm96.322-115.2-70.725 70.725h53.348c4.764 0 9.101-1.957 12.275-5.104 3.146-3.174 5.102-7.512 5.102-12.273zm159.99 115.2v-24.746c0-2.523-1.049-4.818-2.693-6.491-1.73-1.701-4.054-2.722-6.491-2.722h-26.136v.029c-2.523 0-4.819 1.049-6.463 2.692-1.673 1.673-2.722 3.969-2.722 6.491v24.746h44.505zm-22.253 188.166 17.632-35.319h-35.264z"/></g></svg>